<?xml version="1.0" standalone="no"?>
 <!DOCTYPE svg PUBLIC "-//W3C//DTD SVG 1.1//EN" 
 "http://www.w3.org/Graphics/SVG/1.1/DTD/svg11.dtd"> 
<svg xmlns="http://www.w3.org/2000/svg" version="1.1" 
    width="41.9989cm" height="29.7002cm" viewBox="0 0 165350 116930 ">
<title>SVG Picture created as MEGA_LED-B_Cu.svg date 2017/03/26 20:43:13 </title>
  <desc>Picture generated by PCBNEW </desc>
<g style="fill:#000000; fill-opacity:1;stroke:#000000; stroke-opacity:1;
stroke-linecap:round; stroke-linejoin:round; "
 transform="translate(0 0) scale(1 1)">
</g>
<g style="fill:#000000; fill-opacity:0.0; 
stroke:#000000; stroke-width:59.0551; stroke-opacity:1; 
stroke-linecap:round; stroke-linejoin:round;">
</g>
<g style="fill:#000000; fill-opacity:1.0; 
stroke:#000000; stroke-width:59.0551; stroke-opacity:1; 
stroke-linecap:round; stroke-linejoin:round;">
<circle cx="1950" cy="1800" r="300.472" /> 
<circle cx="2950" cy="1800" r="300.472" /> 
<polyline style="fill-rule:evenodd;"
points="6495,9745
6004,9745
6004,9254
6495,9254
6495,9745
" /> 
<circle cx="6250" cy="8500" r="245.472" /> 
<circle cx="6250" cy="7500" r="245.472" /> 
<circle cx="6250" cy="6500" r="245.472" /> 
<circle cx="3250" cy="6500" r="245.472" /> 
<circle cx="3250" cy="7500" r="245.472" /> 
<circle cx="3250" cy="8500" r="245.472" /> 
<circle cx="3250" cy="9500" r="245.472" /> 
<circle cx="9250" cy="9500" r="245.472" /> 
<circle cx="7250" cy="9500" r="245.472" /> 
<circle cx="9250" cy="6500" r="245.472" /> 
<circle cx="7250" cy="6500" r="245.472" /> 
<circle cx="7750" cy="3500" r="300.472" /> 
<circle cx="3750" cy="2500" r="300.472" /> 
<circle cx="3750" cy="4500" r="300.472" /> 
<circle cx="1500" cy="6500" r="270.472" /> 
<circle cx="1500" cy="10500" r="270.472" /> 
<polyline style="fill-rule:evenodd;"
points="2004,6754
2495,6754
2495,7245
2004,7245
2004,6754
" /> 
<circle cx="2250" cy="4000" r="245.472" /> 
<polyline style="fill-rule:evenodd;"
points="1745,2995
1254,2995
1254,2504
1745,2504
1745,2995
" /> 
<circle cx="1500" cy="5750" r="245.472" /> 
<circle cx="8750" cy="3500" r="245.472" /> 
<circle cx="8750" cy="5500" r="245.472" /> 
<circle cx="5750" cy="5500" r="245.472" /> 
<circle cx="3750" cy="5500" r="245.472" /> 
<circle cx="8000" cy="10500" r="285.433" /> 
<circle cx="9250" cy="11500" r="285.433" /> 
<circle cx="8250" cy="18250" r="285.433" /> 
<circle cx="1750" cy="18250" r="285.433" /> 
<circle cx="1750" cy="11750" r="285.433" /> 
<circle cx="8250" cy="11750" r="285.433" /> 
<circle cx="9250" cy="10500" r="285.433" /> 
<circle cx="7250" cy="10500" r="285.433" /> 
</g>
<g style="fill:#000000; fill-opacity:1.0; 
stroke:#000000; stroke-width:472.441; stroke-opacity:1; 
stroke-linecap:round; stroke-linejoin:round;">
<path d="M6250 9500
L9250 6500
" />
</g>
<g style="fill:#000000; fill-opacity:1.0; 
stroke:#000000; stroke-width:236.22; stroke-opacity:1; 
stroke-linecap:round; stroke-linejoin:round;">
<path d="M2950 1800
L8550 1800
" />
<path d="M9500 4750
L8750 5500
" />
<path d="M9500 2750
L9500 4750
" />
<path d="M8550 1800
L9500 2750
" />
</g>
<g style="fill:#000000; fill-opacity:1.0; 
stroke:#000000; stroke-width:472.441; stroke-opacity:1; 
stroke-linecap:round; stroke-linejoin:round;">
<path d="M9250 6000
L8750 5500
" />
</g>
<g style="fill:#000000; fill-opacity:1.0; 
stroke:#000000; stroke-width:236.22; stroke-opacity:1; 
stroke-linecap:round; stroke-linejoin:round;">
<path d="M6250 8500
L8000 6750
" />
<path d="M8000 3750
L7750 3500
" />
<path d="M8000 6750
L8000 3750
" />
<path d="M7750 3500
L6250 3500
" />
<path d="M5000 5750
L3250 7500
" />
<path d="M5000 4750
L5000 5750
" />
<path d="M6250 3500
L5000 4750
" />
<path d="M8750 3500
L7750 3500
" />
<path d="M1500 10500
L3250 10500
" />
<path d="M3250 10500
L6250 7500
" />
<path d="M1950 1800
L1200 1800
" />
<path d="M750 9750
L1500 10500
" />
<path d="M750 2250
L750 9750
" />
<path d="M1200 1800
L750 2250
" />
</g>
<g style="fill:#000000; fill-opacity:1.0; 
stroke:#000000; stroke-width:472.441; stroke-opacity:1; 
stroke-linecap:round; stroke-linejoin:round;">
<path d="M9250 9500
L9250 10500
" />
<path d="M9250 6500
L9250 6000
" />
<path d="M9250 9500
L9250 6500
" />
</g>
<g style="fill:#000000; fill-opacity:1.0; 
stroke:#000000; stroke-width:314.961; stroke-opacity:1; 
stroke-linecap:round; stroke-linejoin:round;">
<path d="M3250 6500
L3250 6000
" />
<path d="M3250 6000
L3750 5500
" />
</g>
<g style="fill:#000000; fill-opacity:1.0; 
stroke:#000000; stroke-width:236.22; stroke-opacity:1; 
stroke-linecap:round; stroke-linejoin:round;">
<path d="M1500 5750
L1500 6500
" />
<path d="M1500 6500
L2000 7000
" />
<path d="M2000 7000
L2250 7000
" />
<path d="M1500 2750
L3500 2750
" />
<path d="M3500 2750
L3750 2500
" />
<path d="M2250 4000
L3250 4000
" />
<path d="M3250 4000
L3750 4500
" />
</g>
<g style="fill:#000000; fill-opacity:1.0; 
stroke:#000000; stroke-width:472.441; stroke-opacity:1; 
stroke-linecap:round; stroke-linejoin:round;">
<path d="M7250 9500
L7250 10500
" />
</g>
<g style="fill:#000000; fill-opacity:1.0; 
stroke:#000000; stroke-width:236.22; stroke-opacity:1; 
stroke-linecap:round; stroke-linejoin:round;">
<path d="M3250 9500
L3500 9500
" />
<path d="M5000 6500
L6250 6500
" />
<path d="M4500 7000
L5000 6500
" />
<path d="M4500 8500
L4500 7000
" />
<path d="M3500 9500
L4500 8500
" />
</g>
<g style="fill:#000000; fill-opacity:1.0; 
stroke:#000000; stroke-width:314.961; stroke-opacity:1; 
stroke-linecap:round; stroke-linejoin:round;">
<path d="M5750 5500
L5750 6000
" />
<path d="M5750 6000
L6250 6500
" />
<path d="M6250 6500
L7250 6500
" />
</g> 
</svg>
