M48
;DRILL file {Pcbnew (2013-07-07 BZR 4022)-stable} date 6.9.2017 23:10:30
;FORMAT={3:3/ absolute / metric / suppress leading zeros}
FMAT,2
METRIC,TZ
T1C0.800
T2C0.813
%
G90
G05
M71
T1
X4445Y-29845
X4445Y-46355
X18415Y-26670
X20320Y-26670
X20955Y-29845
X20955Y-46355
X23495Y-26670
X23495Y-29210
T2
X3810Y-6985
X3810Y-14605
X3810Y-16510
X3810Y-26670
X4953Y-4572
X5715Y-10160
X5715Y-17780
X7493Y-4572
X8255Y-16510
X8255Y-19050
X8255Y-21590
X8255Y-24130
X9525Y-6350
X9525Y-11430
X9525Y-13970
X14605Y-13970
X15875Y-16510
X15875Y-19050
X15875Y-21590
X15875Y-24130
X18415Y-16510
X18415Y-24130
X19685Y-8890
X22225Y-8890
X22225Y-13970
X23495Y-16510
X23495Y-24130
T0
M30
