G04 (created by PCBNEW (2013-07-07 BZR 4022)-stable) date 6.9.2017 23:13:13*
%MOIN*%
G04 Gerber Fmt 3.4, Leading zero omitted, Abs format*
%FSLAX34Y34*%
G01*
G70*
G90*
G04 APERTURE LIST*
%ADD10C,0.00590551*%
%ADD11C,0.066*%
%ADD12R,0.055X0.055*%
%ADD13C,0.055*%
%ADD14C,0.06*%
%ADD15C,0.0629921*%
%ADD16C,0.0472441*%
%ADD17C,0.023622*%
%ADD18C,0.0314961*%
G04 APERTURE END LIST*
G54D10*
G54D11*
X1950Y-1800D03*
X2950Y-1800D03*
G54D12*
X6250Y-9500D03*
G54D13*
X6250Y-8500D03*
X6250Y-7500D03*
X6250Y-6500D03*
X3250Y-6500D03*
X3250Y-7500D03*
X3250Y-8500D03*
X3250Y-9500D03*
X9250Y-9500D03*
X7250Y-9500D03*
X9250Y-6500D03*
X7250Y-6500D03*
G54D11*
X7750Y-3500D03*
X3750Y-2500D03*
X3750Y-4500D03*
G54D14*
X1500Y-6500D03*
X1500Y-10500D03*
G54D12*
X2250Y-7000D03*
G54D13*
X2250Y-4000D03*
G54D12*
X1500Y-2750D03*
G54D13*
X1500Y-5750D03*
X8750Y-3500D03*
X8750Y-5500D03*
X5750Y-5500D03*
X3750Y-5500D03*
G54D15*
X8000Y-10500D03*
X9250Y-11500D03*
X8250Y-18250D03*
X1750Y-18250D03*
X1750Y-11750D03*
X8250Y-11750D03*
X9250Y-10500D03*
X7250Y-10500D03*
G54D16*
X6250Y-9500D02*
X9250Y-6500D01*
G54D17*
X2950Y-1800D02*
X8550Y-1800D01*
X9500Y-4750D02*
X8750Y-5500D01*
X9500Y-2750D02*
X9500Y-4750D01*
X8550Y-1800D02*
X9500Y-2750D01*
G54D16*
X9250Y-6000D02*
X8750Y-5500D01*
G54D17*
X6250Y-8500D02*
X8000Y-6750D01*
X8000Y-3750D02*
X7750Y-3500D01*
X8000Y-6750D02*
X8000Y-3750D01*
X7750Y-3500D02*
X6250Y-3500D01*
X5000Y-5750D02*
X3250Y-7500D01*
X5000Y-4750D02*
X5000Y-5750D01*
X6250Y-3500D02*
X5000Y-4750D01*
X8750Y-3500D02*
X7750Y-3500D01*
X1500Y-10500D02*
X3250Y-10500D01*
X3250Y-10500D02*
X6250Y-7500D01*
X1950Y-1800D02*
X1200Y-1800D01*
X750Y-9750D02*
X1500Y-10500D01*
X750Y-2250D02*
X750Y-9750D01*
X1200Y-1800D02*
X750Y-2250D01*
G54D16*
X9250Y-9500D02*
X9250Y-10500D01*
X9250Y-6500D02*
X9250Y-6000D01*
X9250Y-9500D02*
X9250Y-6500D01*
G54D18*
X3250Y-6500D02*
X3250Y-6000D01*
X3250Y-6000D02*
X3750Y-5500D01*
G54D17*
X1500Y-5750D02*
X1500Y-6500D01*
X1500Y-6500D02*
X2000Y-7000D01*
X2000Y-7000D02*
X2250Y-7000D01*
X1500Y-2750D02*
X3500Y-2750D01*
X3500Y-2750D02*
X3750Y-2500D01*
X2250Y-4000D02*
X3250Y-4000D01*
X3250Y-4000D02*
X3750Y-4500D01*
G54D16*
X7250Y-9500D02*
X7250Y-10500D01*
G54D17*
X3250Y-9500D02*
X3500Y-9500D01*
X5000Y-6500D02*
X6250Y-6500D01*
X4500Y-7000D02*
X5000Y-6500D01*
X4500Y-8500D02*
X4500Y-7000D01*
X3500Y-9500D02*
X4500Y-8500D01*
G54D18*
X5750Y-5500D02*
X5750Y-6000D01*
X5750Y-6000D02*
X6250Y-6500D01*
X6250Y-6500D02*
X7250Y-6500D01*
M02*
