M48
;DRILL file {Pcbnew (2013-07-07 BZR 4022)-stable} date 21.3.2017 2:01:42
;FORMAT={3:3/ absolute / metric / suppress leading zeros}
FMAT,2
METRIC,TZ
T1C0.813
T2C1.016
%
G90
G05
M71
T1
X6858Y-10922
X6858Y-18542
X6858Y-21082
X6858Y-28702
X8128Y-5842
X9398Y-9906
X9398Y-14986
X10668Y-5842
X10668Y-17272
X10668Y-24892
X15748Y-3302
X15748Y-5842
X17018Y-18542
X17018Y-21082
X17018Y-23622
X17018Y-26162
X19558Y-12446
X24638Y-8128
X24638Y-15748
X24638Y-18542
X24638Y-21082
X24638Y-23622
X24638Y-26162
X24638Y-29972
X24638Y-32512
X29718Y-8128
X29718Y-15748
T2
X5588Y-40132
X28448Y-40132
T0
M30
