<?xml version="1.0" standalone="no"?>
 <!DOCTYPE svg PUBLIC "-//W3C//DTD SVG 1.1//EN" 
 "http://www.w3.org/Graphics/SVG/1.1/DTD/svg11.dtd"> 
<svg xmlns="http://www.w3.org/2000/svg" version="1.1" 
    width="41.9989cm" height="29.7002cm" viewBox="0 0 165350 116930 ">
<title>SVG Picture created as MEGA_LED-drl_map.svg date 2017/03/21 01:57:00 </title>
  <desc>Picture generated by PCBNEW </desc>
<g style="fill:#000000; fill-opacity:1;stroke:#000000; stroke-opacity:1;
stroke-linecap:round; stroke-linejoin:round; "
 transform="translate(0 0) scale(1 1)">
</g>
<g style="fill:#000000; fill-opacity:0.0; 
stroke:#000000; stroke-width:39.3701; stroke-opacity:1; 
stroke-linecap:round; stroke-linejoin:round;">
<path d="M13200 18300
L12700 18800
" />
<path d="M13200 5300
L13200 18300
" />
<path d="M13200 5300
L13200 3800
" />
<path d="M9200 300
L3700 300
" />
<path d="M200 18300
L700 18800
" />
<path d="M200 3300
L200 18300
" />
<path d="M700 18800 A8485.28 8485.28 0.0 0 0 12700 18800 " />
<path d="M3700 300 A3500 3500 0.0 0 0 200 3800 " />
<path d="M13200 4300 A4000 4000 0.0 0 0 9200 300 " />
</g>
<g style="fill:#000000; fill-opacity:0.0; 
stroke:#000000; stroke-width:78.7402; stroke-opacity:1; 
stroke-linecap:round; stroke-linejoin:round;">
<path d="M2540 4140
L2860 4460
" />
<path d="M2860 4140
L2540 4460
" />
<path d="M2540 7140
L2860 7460
" />
<path d="M2860 7140
L2540 7460
" />
<path d="M2540 8140
L2860 8460
" />
<path d="M2860 8140
L2540 8460
" />
<path d="M2540 11140
L2860 11460
" />
<path d="M2860 11140
L2540 11460
" />
<path d="M3040 2140
L3360 2460
" />
<path d="M3360 2140
L3040 2460
" />
<path d="M3540 3740
L3860 4060
" />
<path d="M3860 3740
L3540 4060
" />
<path d="M3540 5740
L3860 6060
" />
<path d="M3860 5740
L3540 6060
" />
<path d="M4040 2140
L4360 2460
" />
<path d="M4360 2140
L4040 2460
" />
<path d="M4040 6640
L4360 6960
" />
<path d="M4360 6640
L4040 6960
" />
<path d="M4040 9640
L4360 9960
" />
<path d="M4360 9640
L4040 9960
" />
<path d="M6040 1140
L6360 1460
" />
<path d="M6360 1140
L6040 1460
" />
<path d="M6040 2140
L6360 2460
" />
<path d="M6360 2140
L6040 2460
" />
<path d="M6540 7140
L6860 7460
" />
<path d="M6860 7140
L6540 7460
" />
<path d="M6540 8140
L6860 8460
" />
<path d="M6860 8140
L6540 8460
" />
<path d="M6540 9140
L6860 9460
" />
<path d="M6860 9140
L6540 9460
" />
<path d="M6540 10140
L6860 10460
" />
<path d="M6860 10140
L6540 10460
" />
<path d="M7540 4740
L7860 5060
" />
<path d="M7860 4740
L7540 5060
" />
<path d="M9540 3040
L9860 3360
" />
<path d="M9860 3040
L9540 3360
" />
<path d="M9540 6040
L9860 6360
" />
<path d="M9860 6040
L9540 6360
" />
<path d="M9540 7140
L9860 7460
" />
<path d="M9860 7140
L9540 7460
" />
<path d="M9540 8140
L9860 8460
" />
<path d="M9860 8140
L9540 8460
" />
<path d="M9540 9140
L9860 9460
" />
<path d="M9860 9140
L9540 9460
" />
<path d="M9540 10140
L9860 10460
" />
<path d="M9860 10140
L9540 10460
" />
<path d="M9540 11640
L9860 11960
" />
<path d="M9860 11640
L9540 11960
" />
<path d="M9540 12640
L9860 12960
" />
<path d="M9860 12640
L9540 12960
" />
<path d="M11540 3040
L11860 3360
" />
<path d="M11860 3040
L11540 3360
" />
<path d="M11540 6040
L11860 6360
" />
<path d="M11860 6040
L11540 6360
" />
<circle cx="2200" cy="15800" r="200" /> 
<circle cx="11200" cy="15800" r="200" /> 
</g>
<g style="fill:#000000; fill-opacity:0.0; 
stroke:#000000; stroke-width:118.11; stroke-opacity:1; 
stroke-linecap:round; stroke-linejoin:round;">
<path d="M1248 20596
L1248 19415
L1530 19415
L1698 19472
L1811 19584
L1867 19697
L1923 19922
L1923 20090
L1867 20315
L1811 20428
L1698 20540
L1530 20596
L1248 20596
" />
<path d="M2430 20596
L2430 19809
" />
<path d="M2430 20034
L2486 19922
L2542 19865
L2655 19809
L2767 19809
" />
<path d="M3161 20596
L3161 19809
" />
<path d="M3161 19415
L3104 19472
L3161 19528
L3217 19472
L3161 19415
L3161 19528
" />
<path d="M3892 20596
L3779 20540
L3723 20428
L3723 19415
" />
<path d="M4511 20596
L4398 20540
L4342 20428
L4342 19415
" />
<path d="M5860 20596
L5860 19415
L6254 20259
L6648 19415
L6648 20596
" />
<path d="M7716 20596
L7716 19978
L7660 19865
L7548 19809
L7323 19809
L7210 19865
" />
<path d="M7716 20540
L7604 20596
L7323 20596
L7210 20540
L7154 20428
L7154 20315
L7210 20203
L7323 20147
L7604 20147
L7716 20090
" />
<path d="M8279 19809
L8279 20990
" />
<path d="M8279 19865
L8391 19809
L8616 19809
L8729 19865
L8785 19922
L8841 20034
L8841 20371
L8785 20484
L8729 20540
L8616 20596
L8391 20596
L8279 20540
" />
<path d="M9347 20484
L9404 20540
L9347 20596
L9291 20540
L9347 20484
L9347 20596
" />
<path d="M9347 19865
L9404 19922
L9347 19978
L9291 19922
L9347 19865
L9347 19978
" />
<path d="M-139 22439
L180 22759
" />
<path d="M180 22439
L-139 22759
" />
<path d="M1473 21896
L1586 21896
L1698 21952
L1755 22008
L1811 22121
L1867 22346
L1867 22627
L1811 22852
L1755 22964
L1698 23021
L1586 23077
L1473 23077
L1361 23021
L1305 22964
L1248 22852
L1192 22627
L1192 22346
L1248 22121
L1305 22008
L1361 21952
L1473 21896
" />
<path d="M2373 22964
L2430 23021
L2373 23077
L2317 23021
L2373 22964
L2373 23077
" />
<path d="M3104 22402
L2992 22346
L2936 22289
L2879 22177
L2879 22121
L2936 22008
L2992 21952
L3104 21896
L3329 21896
L3442 21952
L3498 22008
L3554 22121
L3554 22177
L3498 22289
L3442 22346
L3329 22402
L3104 22402
L2992 22458
L2936 22514
L2879 22627
L2879 22852
L2936 22964
L2992 23021
L3104 23077
L3329 23077
L3442 23021
L3498 22964
L3554 22852
L3554 22627
L3498 22514
L3442 22458
L3329 22402
" />
<path d="M4679 23077
L4004 23077
" />
<path d="M4342 23077
L4342 21896
L4229 22064
L4117 22177
L4004 22233
" />
<path d="M5185 23077
L5185 22289
" />
<path d="M5185 22402
L5242 22346
L5354 22289
L5523 22289
L5635 22346
L5692 22458
L5692 23077
" />
<path d="M5692 22458
L5748 22346
L5860 22289
L6029 22289
L6142 22346
L6198 22458
L6198 23077
" />
<path d="M6760 23077
L6760 22289
" />
<path d="M6760 22402
L6816 22346
L6929 22289
L7098 22289
L7210 22346
L7266 22458
L7266 23077
" />
<path d="M7266 22458
L7323 22346
L7435 22289
L7604 22289
L7716 22346
L7773 22458
L7773 23077
" />
<path d="M10079 21839
L9066 23358
" />
<path d="M11597 21896
L11710 21896
L11822 21952
L11878 22008
L11935 22121
L11991 22346
L11991 22627
L11935 22852
L11878 22964
L11822 23021
L11710 23077
L11597 23077
L11485 23021
L11428 22964
L11372 22852
L11316 22627
L11316 22346
L11372 22121
L11428 22008
L11485 21952
L11597 21896
" />
<path d="M12497 22964
L12553 23021
L12497 23077
L12441 23021
L12497 22964
L12497 23077
" />
<path d="M13284 21896
L13397 21896
L13509 21952
L13566 22008
L13622 22121
L13678 22346
L13678 22627
L13622 22852
L13566 22964
L13509 23021
L13397 23077
L13284 23077
L13172 23021
L13116 22964
L13059 22852
L13003 22627
L13003 22346
L13059 22121
L13116 22008
L13172 21952
L13284 21896
" />
<path d="M14072 21896
L14803 21896
L14409 22346
L14578 22346
L14691 22402
L14747 22458
L14803 22571
L14803 22852
L14747 22964
L14691 23021
L14578 23077
L14241 23077
L14128 23021
L14072 22964
" />
<path d="M15253 22008
L15309 21952
L15422 21896
L15703 21896
L15815 21952
L15872 22008
L15928 22121
L15928 22233
L15872 22402
L15197 23077
L15928 23077
" />
<path d="M16378 21896
L16378 22121
" />
<path d="M16828 21896
L16828 22121
" />
<path d="M18571 23527
L18515 23470
L18403 23302
L18346 23189
L18290 23021
L18234 22739
L18234 22514
L18290 22233
L18346 22064
L18403 21952
L18515 21783
L18571 21727
" />
<path d="M18965 22008
L19021 21952
L19134 21896
L19415 21896
L19527 21952
L19584 22008
L19640 22121
L19640 22233
L19584 22402
L18909 23077
L19640 23077
" />
<path d="M20034 21896
L20821 21896
L20315 23077
" />
<path d="M22171 23077
L22171 21896
" />
<path d="M22677 23077
L22677 22458
L22621 22346
L22508 22289
L22340 22289
L22227 22346
L22171 22402
" />
<path d="M23408 23077
L23296 23021
L23239 22964
L23183 22852
L23183 22514
L23239 22402
L23296 22346
L23408 22289
L23577 22289
L23689 22346
L23746 22402
L23802 22514
L23802 22852
L23746 22964
L23689 23021
L23577 23077
L23408 23077
" />
<path d="M24477 23077
L24364 23021
L24308 22908
L24308 21896
" />
<path d="M25377 23021
L25264 23077
L25039 23077
L24927 23021
L24870 22908
L24870 22458
L24927 22346
L25039 22289
L25264 22289
L25377 22346
L25433 22458
L25433 22571
L24870 22683
" />
<path d="M25883 23021
L25995 23077
L26220 23077
L26333 23021
L26389 22908
L26389 22852
L26333 22739
L26220 22683
L26052 22683
L25939 22627
L25883 22514
L25883 22458
L25939 22346
L26052 22289
L26220 22289
L26333 22346
" />
<path d="M26783 23527
L26839 23470
L26951 23302
L27008 23189
L27064 23021
L27120 22739
L27120 22514
L27064 22233
L27008 22064
L26951 21952
L26839 21783
L26783 21727
" />
</g>
<g style="fill:#000000; fill-opacity:0.0; 
stroke:#000000; stroke-width:78.7402; stroke-opacity:1; 
stroke-linecap:round; stroke-linejoin:round;">
<circle cx="-19.6854" cy="24158.3" r="200" /> 
</g>
<g style="fill:#000000; fill-opacity:0.0; 
stroke:#000000; stroke-width:118.11; stroke-opacity:1; 
stroke-linecap:round; stroke-linejoin:round;">
<path d="M1867 24636
L1192 24636
" />
<path d="M1530 24636
L1530 23455
L1417 23623
L1305 23736
L1192 23792
" />
<path d="M2373 24523
L2430 24580
L2373 24636
L2317 24580
L2373 24523
L2373 24636
" />
<path d="M3161 23455
L3273 23455
L3386 23511
L3442 23567
L3498 23680
L3554 23905
L3554 24186
L3498 24411
L3442 24523
L3386 24580
L3273 24636
L3161 24636
L3048 24580
L2992 24523
L2936 24411
L2879 24186
L2879 23905
L2936 23680
L2992 23567
L3048 23511
L3161 23455
" />
<path d="M4004 23567
L4061 23511
L4173 23455
L4454 23455
L4567 23511
L4623 23567
L4679 23680
L4679 23792
L4623 23961
L3948 24636
L4679 24636
" />
<path d="M5185 24636
L5185 23848
" />
<path d="M5185 23961
L5242 23905
L5354 23848
L5523 23848
L5635 23905
L5692 24017
L5692 24636
" />
<path d="M5692 24017
L5748 23905
L5860 23848
L6029 23848
L6142 23905
L6198 24017
L6198 24636
" />
<path d="M6760 24636
L6760 23848
" />
<path d="M6760 23961
L6816 23905
L6929 23848
L7098 23848
L7210 23905
L7266 24017
L7266 24636
" />
<path d="M7266 24017
L7323 23905
L7435 23848
L7604 23848
L7716 23905
L7773 24017
L7773 24636
" />
<path d="M10079 23398
L9066 24917
" />
<path d="M11597 23455
L11710 23455
L11822 23511
L11878 23567
L11935 23680
L11991 23905
L11991 24186
L11935 24411
L11878 24523
L11822 24580
L11710 24636
L11597 24636
L11485 24580
L11428 24523
L11372 24411
L11316 24186
L11316 23905
L11372 23680
L11428 23567
L11485 23511
L11597 23455
" />
<path d="M12497 24523
L12553 24580
L12497 24636
L12441 24580
L12497 24523
L12497 24636
" />
<path d="M13284 23455
L13397 23455
L13509 23511
L13566 23567
L13622 23680
L13678 23905
L13678 24186
L13622 24411
L13566 24523
L13509 24580
L13397 24636
L13284 24636
L13172 24580
L13116 24523
L13059 24411
L13003 24186
L13003 23905
L13059 23680
L13116 23567
L13172 23511
L13284 23455
" />
<path d="M14691 23848
L14691 24636
" />
<path d="M14409 23398
L14128 24242
L14859 24242
" />
<path d="M15534 23455
L15647 23455
L15759 23511
L15815 23567
L15872 23680
L15928 23905
L15928 24186
L15872 24411
L15815 24523
L15759 24580
L15647 24636
L15534 24636
L15422 24580
L15365 24523
L15309 24411
L15253 24186
L15253 23905
L15309 23680
L15365 23567
L15422 23511
L15534 23455
" />
<path d="M16378 23455
L16378 23680
" />
<path d="M16828 23455
L16828 23680
" />
<path d="M18571 25086
L18515 25030
L18403 24861
L18346 24748
L18290 24580
L18234 24298
L18234 24073
L18290 23792
L18346 23623
L18403 23511
L18515 23342
L18571 23286
" />
<path d="M18965 23567
L19021 23511
L19134 23455
L19415 23455
L19527 23511
L19584 23567
L19640 23680
L19640 23792
L19584 23961
L18909 24636
L19640 24636
" />
<path d="M21046 24636
L21046 23455
" />
<path d="M21552 24636
L21552 24017
L21496 23905
L21383 23848
L21215 23848
L21102 23905
L21046 23961
" />
<path d="M22283 24636
L22171 24580
L22115 24523
L22058 24411
L22058 24073
L22115 23961
L22171 23905
L22283 23848
L22452 23848
L22565 23905
L22621 23961
L22677 24073
L22677 24411
L22621 24523
L22565 24580
L22452 24636
L22283 24636
" />
<path d="M23352 24636
L23239 24580
L23183 24467
L23183 23455
" />
<path d="M24252 24580
L24139 24636
L23914 24636
L23802 24580
L23746 24467
L23746 24017
L23802 23905
L23914 23848
L24139 23848
L24252 23905
L24308 24017
L24308 24130
L23746 24242
" />
<path d="M24758 24580
L24870 24636
L25095 24636
L25208 24580
L25264 24467
L25264 24411
L25208 24298
L25095 24242
L24927 24242
L24814 24186
L24758 24073
L24758 24017
L24814 23905
L24927 23848
L25095 23848
L25208 23905
" />
<path d="M25658 25086
L25714 25030
L25827 24861
L25883 24748
L25939 24580
L25995 24298
L25995 24073
L25939 23792
L25883 23623
L25827 23511
L25714 23342
L25658 23286
" />
</g> 
</svg>
