<?xml version="1.0" standalone="no"?>
 <!DOCTYPE svg PUBLIC "-//W3C//DTD SVG 1.1//EN" 
 "http://www.w3.org/Graphics/SVG/1.1/DTD/svg11.dtd"> 
<svg xmlns="http://www.w3.org/2000/svg" version="1.1" 
    width="41.9989cm" height="29.7002cm" viewBox="0 0 165350 116930 ">
<title>SVG Picture created as MEGA_LED-Edge_Cuts.svg date 2017/03/20 17:46:42 </title>
  <desc>Picture generated by PCBNEW </desc>
<g style="fill:#000000; fill-opacity:1;stroke:#000000; stroke-opacity:1;
stroke-linecap:round; stroke-linejoin:round; "
 transform="translate(0 0) scale(1 1)">
</g>
<g style="fill:#000000; fill-opacity:0.0; 
stroke:#000000; stroke-width:118.11; stroke-opacity:1; 
stroke-linecap:round; stroke-linejoin:round;">
<path d="M15083 8412
L15083 8131
L14801 8103
L14829 8131
L14858 8187
L14858 8328
L14829 8384
L14801 8412
L14745 8440
L14604 8440
L14548 8412
L14520 8384
L14492 8328
L14492 8187
L14520 8131
L14548 8103
" />
<path d="M15026 8665
L15054 8693
L15083 8750
L15083 8890
L15054 8947
L15026 8975
L14970 9003
L14914 9003
L14829 8975
L14492 8637
L14492 9003
" />
<path d="M14520 9284
L14492 9284
L14436 9256
L14408 9228
" />
<path d="M15083 9650
L15083 9706
L15054 9762
L15026 9790
L14970 9818
L14858 9846
L14717 9846
L14604 9818
L14548 9790
L14520 9762
L14492 9706
L14492 9650
L14520 9593
L14548 9565
L14604 9537
L14717 9509
L14858 9509
L14970 9537
L15026 9565
L15054 9593
L15083 9650
" />
<path d="M15083 10043
L15083 10437
L14492 10184
" />
<path d="M15083 10774
L15083 10831
L15054 10887
L15026 10915
L14970 10943
L14858 10971
L14717 10971
L14604 10943
L14548 10915
L14520 10887
L14492 10831
L14492 10774
L14520 10718
L14548 10690
L14604 10662
L14717 10634
L14858 10634
L14970 10662
L15026 10690
L15054 10718
L15083 10774
" />
<path d="M14492 11674
L14886 11674
" />
<path d="M14829 11674
L14858 11702
L14886 11759
L14886 11843
L14858 11899
L14801 11927
L14492 11927
" />
<path d="M14801 11927
L14858 11956
L14886 12012
L14886 12096
L14858 12152
L14801 12181
L14492 12181
" />
<path d="M14492 12462
L14886 12462
" />
<path d="M14829 12462
L14858 12490
L14886 12546
L14886 12630
L14858 12687
L14801 12715
L14492 12715
" />
<path d="M14801 12715
L14858 12743
L14886 12799
L14886 12884
L14858 12940
L14801 12968
L14492 12968
" />
<path d="M14199 300
L14199 20800
" />
<path d="M9700 300
L15262 300
" />
<path d="M9700 20800
L15262 20800
" />
<path d="M14199 20800
L13969 20356
" />
<path d="M14199 20800
L14430 20356
" />
<path d="M14199 300
L13969 743
" />
<path d="M14199 300
L14430 743
" />
</g>
<g style="fill:#000000; fill-opacity:0.0; 
stroke:#000000; stroke-width:39.3701; stroke-opacity:1; 
stroke-linecap:round; stroke-linejoin:round;">
<path d="M13200 18300
L12700 18800
" />
<path d="M13200 5300
L13200 18300
" />
</g>
<g style="fill:#000000; fill-opacity:0.0; 
stroke:#000000; stroke-width:118.11; stroke-opacity:1; 
stroke-linecap:round; stroke-linejoin:round;">
<path d="M4225 -2083
L4590 -2083
L4394 -1858
L4478 -1858
L4534 -1829
L4562 -1801
L4590 -1745
L4590 -1604
L4562 -1548
L4534 -1520
L4478 -1492
L4309 -1492
L4253 -1520
L4225 -1548
" />
<path d="M4787 -2083
L5153 -2083
L4956 -1858
L5040 -1858
L5097 -1829
L5125 -1801
L5153 -1745
L5153 -1604
L5125 -1548
L5097 -1520
L5040 -1492
L4872 -1492
L4815 -1520
L4787 -1548
" />
<path d="M5434 -1520
L5434 -1492
L5406 -1436
L5378 -1408
" />
<path d="M5800 -2083
L5856 -2083
L5912 -2054
L5940 -2026
L5968 -1970
L5996 -1858
L5996 -1717
L5968 -1604
L5940 -1548
L5912 -1520
L5856 -1492
L5800 -1492
L5743 -1520
L5715 -1548
L5687 -1604
L5659 -1717
L5659 -1858
L5687 -1970
L5715 -2026
L5743 -2054
L5800 -2083
" />
<path d="M6221 -2026
L6250 -2054
L6306 -2083
L6446 -2083
L6503 -2054
L6531 -2026
L6559 -1970
L6559 -1914
L6531 -1829
L6193 -1492
L6559 -1492
" />
<path d="M6924 -2083
L6981 -2083
L7037 -2054
L7065 -2026
L7093 -1970
L7121 -1858
L7121 -1717
L7093 -1604
L7065 -1548
L7037 -1520
L6981 -1492
L6924 -1492
L6868 -1520
L6840 -1548
L6812 -1604
L6784 -1717
L6784 -1858
L6812 -1970
L6840 -2026
L6868 -2054
L6924 -2083
" />
<path d="M7824 -1492
L7824 -1886
" />
<path d="M7824 -1829
L7852 -1858
L7909 -1886
L7993 -1886
L8049 -1858
L8077 -1801
L8077 -1492
" />
<path d="M8077 -1801
L8106 -1858
L8162 -1886
L8246 -1886
L8302 -1858
L8331 -1801
L8331 -1492
" />
<path d="M8612 -1492
L8612 -1886
" />
<path d="M8612 -1829
L8640 -1858
L8696 -1886
L8780 -1886
L8837 -1858
L8865 -1801
L8865 -1492
" />
<path d="M8865 -1801
L8893 -1858
L8949 -1886
L9034 -1886
L9090 -1858
L9118 -1801
L9118 -1492
" />
<path d="M200 -1199
L13200 -1199
" />
<path d="M200 3300
L200 -2262
" />
<path d="M13200 3300
L13200 -2262
" />
<path d="M13200 -1199
L12756 -969
" />
<path d="M13200 -1199
L12756 -1430
" />
<path d="M200 -1199
L643 -969
" />
<path d="M200 -1199
L643 -1430
" />
</g>
<g style="fill:#000000; fill-opacity:0.0; 
stroke:#000000; stroke-width:39.3701; stroke-opacity:1; 
stroke-linecap:round; stroke-linejoin:round;">
<path d="M13200 5300
L13200 3800
" />
<path d="M9200 300
L3700 300
" />
<path d="M200 18300
L700 18800
" />
<path d="M200 3300
L200 18300
" />
<path d="M700 18800 A8485.28 8485.28 0.0 0 0 12700 18800 " />
<path d="M3700 300 A3500 3500 0.0 0 0 200 3800 " />
<path d="M13200 4300 A4000 4000 0.0 0 0 9200 300 " />
</g> 
</svg>
