G04 (created by PCBNEW (2013-07-07 BZR 4022)-stable) date 20.3.2017 15:58:27*
%MOIN*%
G04 Gerber Fmt 3.4, Leading zero omitted, Abs format*
%FSLAX34Y34*%
G01*
G70*
G90*
G04 APERTURE LIST*
%ADD10C,0.00590551*%
%ADD11C,0.011811*%
%ADD12C,0.00393701*%
G04 APERTURE END LIST*
G54D10*
G54D11*
X19883Y-13112D02*
X19883Y-12831D01*
X19601Y-12803D01*
X19629Y-12831D01*
X19658Y-12887D01*
X19658Y-13028D01*
X19629Y-13084D01*
X19601Y-13112D01*
X19545Y-13140D01*
X19404Y-13140D01*
X19348Y-13112D01*
X19320Y-13084D01*
X19292Y-13028D01*
X19292Y-12887D01*
X19320Y-12831D01*
X19348Y-12803D01*
X19826Y-13365D02*
X19854Y-13393D01*
X19883Y-13450D01*
X19883Y-13590D01*
X19854Y-13647D01*
X19826Y-13675D01*
X19770Y-13703D01*
X19714Y-13703D01*
X19629Y-13675D01*
X19292Y-13337D01*
X19292Y-13703D01*
X19320Y-13984D02*
X19292Y-13984D01*
X19236Y-13956D01*
X19208Y-13928D01*
X19883Y-14350D02*
X19883Y-14406D01*
X19854Y-14462D01*
X19826Y-14490D01*
X19770Y-14518D01*
X19658Y-14546D01*
X19517Y-14546D01*
X19404Y-14518D01*
X19348Y-14490D01*
X19320Y-14462D01*
X19292Y-14406D01*
X19292Y-14350D01*
X19320Y-14293D01*
X19348Y-14265D01*
X19404Y-14237D01*
X19517Y-14209D01*
X19658Y-14209D01*
X19770Y-14237D01*
X19826Y-14265D01*
X19854Y-14293D01*
X19883Y-14350D01*
X19883Y-14743D02*
X19883Y-15137D01*
X19292Y-14884D01*
X19883Y-15474D02*
X19883Y-15531D01*
X19854Y-15587D01*
X19826Y-15615D01*
X19770Y-15643D01*
X19658Y-15671D01*
X19517Y-15671D01*
X19404Y-15643D01*
X19348Y-15615D01*
X19320Y-15587D01*
X19292Y-15531D01*
X19292Y-15474D01*
X19320Y-15418D01*
X19348Y-15390D01*
X19404Y-15362D01*
X19517Y-15334D01*
X19658Y-15334D01*
X19770Y-15362D01*
X19826Y-15390D01*
X19854Y-15418D01*
X19883Y-15474D01*
X19292Y-16374D02*
X19686Y-16374D01*
X19629Y-16374D02*
X19658Y-16402D01*
X19686Y-16459D01*
X19686Y-16543D01*
X19658Y-16599D01*
X19601Y-16627D01*
X19292Y-16627D01*
X19601Y-16627D02*
X19658Y-16656D01*
X19686Y-16712D01*
X19686Y-16796D01*
X19658Y-16852D01*
X19601Y-16881D01*
X19292Y-16881D01*
X19292Y-17162D02*
X19686Y-17162D01*
X19629Y-17162D02*
X19658Y-17190D01*
X19686Y-17246D01*
X19686Y-17330D01*
X19658Y-17387D01*
X19601Y-17415D01*
X19292Y-17415D01*
X19601Y-17415D02*
X19658Y-17443D01*
X19686Y-17499D01*
X19686Y-17584D01*
X19658Y-17640D01*
X19601Y-17668D01*
X19292Y-17668D01*
X18999Y-5000D02*
X18999Y-25500D01*
X14500Y-5000D02*
X20062Y-5000D01*
X14500Y-25500D02*
X20062Y-25500D01*
X18999Y-25500D02*
X18769Y-25056D01*
X18999Y-25500D02*
X19230Y-25056D01*
X18999Y-5000D02*
X18769Y-5443D01*
X18999Y-5000D02*
X19230Y-5443D01*
G54D12*
X18000Y-23000D02*
X17500Y-23500D01*
X18000Y-10000D02*
X18000Y-23000D01*
G54D11*
X9025Y-2616D02*
X9390Y-2616D01*
X9194Y-2841D01*
X9278Y-2841D01*
X9334Y-2870D01*
X9362Y-2898D01*
X9390Y-2954D01*
X9390Y-3095D01*
X9362Y-3151D01*
X9334Y-3179D01*
X9278Y-3207D01*
X9109Y-3207D01*
X9053Y-3179D01*
X9025Y-3151D01*
X9587Y-2616D02*
X9953Y-2616D01*
X9756Y-2841D01*
X9840Y-2841D01*
X9897Y-2870D01*
X9925Y-2898D01*
X9953Y-2954D01*
X9953Y-3095D01*
X9925Y-3151D01*
X9897Y-3179D01*
X9840Y-3207D01*
X9672Y-3207D01*
X9615Y-3179D01*
X9587Y-3151D01*
X10234Y-3179D02*
X10234Y-3207D01*
X10206Y-3263D01*
X10178Y-3291D01*
X10600Y-2616D02*
X10656Y-2616D01*
X10712Y-2645D01*
X10740Y-2673D01*
X10768Y-2729D01*
X10796Y-2841D01*
X10796Y-2982D01*
X10768Y-3095D01*
X10740Y-3151D01*
X10712Y-3179D01*
X10656Y-3207D01*
X10600Y-3207D01*
X10543Y-3179D01*
X10515Y-3151D01*
X10487Y-3095D01*
X10459Y-2982D01*
X10459Y-2841D01*
X10487Y-2729D01*
X10515Y-2673D01*
X10543Y-2645D01*
X10600Y-2616D01*
X11021Y-2673D02*
X11050Y-2645D01*
X11106Y-2616D01*
X11246Y-2616D01*
X11303Y-2645D01*
X11331Y-2673D01*
X11359Y-2729D01*
X11359Y-2785D01*
X11331Y-2870D01*
X10993Y-3207D01*
X11359Y-3207D01*
X11724Y-2616D02*
X11781Y-2616D01*
X11837Y-2645D01*
X11865Y-2673D01*
X11893Y-2729D01*
X11921Y-2841D01*
X11921Y-2982D01*
X11893Y-3095D01*
X11865Y-3151D01*
X11837Y-3179D01*
X11781Y-3207D01*
X11724Y-3207D01*
X11668Y-3179D01*
X11640Y-3151D01*
X11612Y-3095D01*
X11584Y-2982D01*
X11584Y-2841D01*
X11612Y-2729D01*
X11640Y-2673D01*
X11668Y-2645D01*
X11724Y-2616D01*
X12624Y-3207D02*
X12624Y-2813D01*
X12624Y-2870D02*
X12652Y-2841D01*
X12709Y-2813D01*
X12793Y-2813D01*
X12849Y-2841D01*
X12877Y-2898D01*
X12877Y-3207D01*
X12877Y-2898D02*
X12906Y-2841D01*
X12962Y-2813D01*
X13046Y-2813D01*
X13102Y-2841D01*
X13131Y-2898D01*
X13131Y-3207D01*
X13412Y-3207D02*
X13412Y-2813D01*
X13412Y-2870D02*
X13440Y-2841D01*
X13496Y-2813D01*
X13580Y-2813D01*
X13637Y-2841D01*
X13665Y-2898D01*
X13665Y-3207D01*
X13665Y-2898D02*
X13693Y-2841D01*
X13749Y-2813D01*
X13834Y-2813D01*
X13890Y-2841D01*
X13918Y-2898D01*
X13918Y-3207D01*
X5000Y-3500D02*
X18000Y-3500D01*
X5000Y-8000D02*
X5000Y-2437D01*
X18000Y-8000D02*
X18000Y-2437D01*
X18000Y-3500D02*
X17556Y-3730D01*
X18000Y-3500D02*
X17556Y-3269D01*
X5000Y-3500D02*
X5443Y-3730D01*
X5000Y-3500D02*
X5443Y-3269D01*
G54D12*
X18000Y-10000D02*
X18000Y-8500D01*
X14000Y-5000D02*
X8500Y-5000D01*
X5000Y-23000D02*
X5500Y-23500D01*
X5000Y-8000D02*
X5000Y-23000D01*
X5500Y-23500D02*
G75*
G03X17500Y-23500I6000J6000D01*
G74*
G01*
X8500Y-5000D02*
G75*
G03X5000Y-8500I0J-3500D01*
G74*
G01*
X18000Y-9000D02*
G75*
G03X14000Y-5000I-4000J0D01*
G74*
G01*
M02*
