<?xml version="1.0" standalone="no"?>
 <!DOCTYPE svg PUBLIC "-//W3C//DTD SVG 1.1//EN" 
 "http://www.w3.org/Graphics/SVG/1.1/DTD/svg11.dtd"> 
<svg xmlns="http://www.w3.org/2000/svg" version="1.1" 
    width="41.9989cm" height="29.7002cm" viewBox="0 0 165350 116930 ">
<title>SVG Picture created as MEGA_LED-B_Cu.svg date 2017/03/20 17:46:42 </title>
  <desc>Picture generated by PCBNEW </desc>
<g style="fill:#000000; fill-opacity:1;stroke:#000000; stroke-opacity:1;
stroke-linecap:round; stroke-linejoin:round; "
 transform="translate(0 0) scale(1 1)">
</g>
<g style="fill:#000000; fill-opacity:0.0; 
stroke:#000000; stroke-width:59.0551; stroke-opacity:1; 
stroke-linecap:round; stroke-linejoin:round;">
</g>
<g style="fill:#000000; fill-opacity:1.0; 
stroke:#000000; stroke-width:59.0551; stroke-opacity:1; 
stroke-linecap:round; stroke-linejoin:round;">
<circle cx="2700" cy="8300" r="245.472" /> 
<circle cx="2700" cy="11300" r="245.472" /> 
<circle cx="3200" cy="2300" r="300.472" /> 
<circle cx="4200" cy="2300" r="300.472" /> 
<polyline style="fill-rule:evenodd;"
points="6454,7054
6945,7054
6945,7545
6454,7545
6454,7054
" /> 
<circle cx="6700" cy="8300" r="245.472" /> 
<circle cx="6700" cy="9300" r="245.472" /> 
<circle cx="6700" cy="10300" r="245.472" /> 
<circle cx="9700" cy="10300" r="245.472" /> 
<circle cx="9700" cy="9300" r="245.472" /> 
<circle cx="9700" cy="8300" r="245.472" /> 
<circle cx="9700" cy="7300" r="245.472" /> 
<polyline style="fill-rule:evenodd;"
points="4445,7045
3954,7045
3954,6554
4445,6554
4445,7045
" /> 
<circle cx="4200" cy="9800" r="245.472" /> 
<polyline style="fill-rule:evenodd;"
points="2454,7054
2945,7054
2945,7545
2454,7545
2454,7054
" /> 
<circle cx="2700" cy="4300" r="245.472" /> 
<circle cx="2200" cy="15800" r="420.472" /> 
<circle cx="11200" cy="15800" r="420.472" /> 
<polyline style="fill-rule:evenodd;"
points="6445,2545
5954,2545
5954,2054
6445,2054
6445,2545
" /> 
<circle cx="6200" cy="1300" r="245.472" /> 
<polyline style="fill-rule:evenodd;"
points="9945,13045
9454,13045
9454,12554
9945,12554
9945,13045
" /> 
<circle cx="9700" cy="11800" r="245.472" /> 
<circle cx="11700" cy="6200" r="245.472" /> 
<circle cx="9700" cy="6200" r="245.472" /> 
<circle cx="11700" cy="3200" r="245.472" /> 
<circle cx="9700" cy="3200" r="245.472" /> 
<circle cx="7700" cy="4900" r="300.472" /> 
<circle cx="3700" cy="3900" r="300.472" /> 
<circle cx="3700" cy="5900" r="300.472" /> 
</g>
<g style="fill:#000000; fill-opacity:1.0; 
stroke:#000000; stroke-width:472.441; stroke-opacity:1; 
stroke-linecap:round; stroke-linejoin:round;">
<path d="M6200 1300
L6800 1300
" />
<path d="M7500 7300
L6700 7300
" />
<path d="M8600 6200
L7500 7300
" />
<path d="M8600 3100
L8600 6200
" />
<path d="M6800 1300
L8600 3100
" />
<path d="M2200 15800
L700 14300
" />
<path d="M2700 1300
L6200 1300
" />
<path d="M700 3300
L2700 1300
" />
<path d="M700 14300
L700 3300
" />
<path d="M4200 2300
L4700 2300
" />
<path d="M5700 1300
L6200 1300
" />
<path d="M4700 2300
L5700 1300
" />
<path d="M4200 6800
L4200 6400
" />
<path d="M4200 6400
L3700 5900
" />
<path d="M2700 4300
L3300 4300
" />
<path d="M3300 4300
L3700 3900
" />
<path d="M11700 6200
L11700 3200
" />
<path d="M11700 6200
L11700 15300
" />
<path d="M9700 11800
L9700 10300
" />
<path d="M2700 11300
L1700 10300
" />
<path d="M1700 3800
L3200 2300
" />
<path d="M1700 10300
L1700 3800
" />
<path d="M6700 9300
L5700 9300
" />
<path d="M4200 11300
L2700 11300
" />
<path d="M5200 10300
L4200 11300
" />
<path d="M5200 9800
L5200 10300
" />
<path d="M5700 9300
L5200 9800
" />
<path d="M2700 8300
L2700 7300
" />
<path d="M4200 9800
L2700 8300
" />
<path d="M11700 15300
L11200 15800
" />
<path d="M7700 4900
L6300 4900
" />
<path d="M6300 4900
L5600 5600
" />
<path d="M6700 8300
L5900 8300
" />
<path d="M5600 2900
L6200 2300
" />
<path d="M5600 8000
L5600 5600
" />
<path d="M5600 5600
L5600 2900
" />
<path d="M5900 8300
L5600 8000
" />
<path d="M6700 8300
L7200 8300
" />
<path d="M8200 9300
L9700 9300
" />
<path d="M7200 8300
L8200 9300
" />
<path d="M9700 7300
L9700 6200
" />
<path d="M9700 6200
L9700 3200
" />
<path d="M9700 12800
L10200 12800
" />
<path d="M10200 7300
L9700 7300
" />
<path d="M10700 7800
L10200 7300
" />
<path d="M10700 12300
L10700 7800
" />
<path d="M10200 12800
L10700 12300
" />
<path d="M9700 12800
L9200 12800
" />
<path d="M9200 12800
L6700 10300
" />
</g> 
</svg>
